<svg width="78" height="78" viewBox="0 0 78 78" fill="none" xmlns="http://www.w3.org/2000/svg">
<path d="M0 16C0 7.16344 7.16344 0 16 0H62C70.8366 0 78 7.16344 78 16V62C78 70.8366 70.8366 78 62 78H16C7.16344 78 0 70.8366 0 62V16Z" fill="#D9D9D9"/>
<path d="M31.0455 35C30.9848 34.2424 30.7008 33.6515 30.1932 33.2273C29.6932 32.803 28.9318 32.5909 27.9091 32.5909C27.2576 32.5909 26.7235 32.6705 26.3068 32.8295C25.8977 32.9811 25.5947 33.1894 25.3977 33.4545C25.2008 33.7197 25.0985 34.0227 25.0909 34.3636C25.0758 34.6439 25.125 34.8977 25.2386 35.125C25.3598 35.3447 25.5492 35.5455 25.8068 35.7273C26.0644 35.9015 26.3939 36.0606 26.7955 36.2045C27.197 36.3485 27.6742 36.4773 28.2273 36.5909L30.1364 37C31.4242 37.2727 32.5265 37.6326 33.4432 38.0795C34.3598 38.5265 35.1098 39.053 35.6932 39.6591C36.2765 40.2576 36.7045 40.9318 36.9773 41.6818C37.2576 42.4318 37.4015 43.25 37.4091 44.1364C37.4015 45.6667 37.0189 46.9621 36.2614 48.0227C35.5038 49.0833 34.4205 49.8902 33.0114 50.4432C31.6098 50.9962 29.9242 51.2727 27.9545 51.2727C25.9318 51.2727 24.1667 50.9735 22.6591 50.375C21.1591 49.7765 19.9924 48.8561 19.1591 47.6136C18.3333 46.3636 17.9167 44.7652 17.9091 42.8182H23.9091C23.947 43.5303 24.125 44.1288 24.4432 44.6136C24.7614 45.0985 25.2083 45.4659 25.7841 45.7159C26.3674 45.9659 27.0606 46.0909 27.8636 46.0909C28.5379 46.0909 29.1023 46.0076 29.5568 45.8409C30.0114 45.6742 30.3561 45.4432 30.5909 45.1477C30.8258 44.8523 30.947 44.5152 30.9545 44.1364C30.947 43.7803 30.8295 43.4697 30.6023 43.2045C30.3826 42.9318 30.0189 42.6894 29.5114 42.4773C29.0038 42.2576 28.3182 42.053 27.4545 41.8636L25.1364 41.3636C23.0758 40.9167 21.4508 40.1705 20.2614 39.125C19.0795 38.072 18.4924 36.6364 18.5 34.8182C18.4924 33.3409 18.8864 32.0492 19.6818 30.9432C20.4848 29.8295 21.5947 28.9621 23.0114 28.3409C24.4356 27.7197 26.0682 27.4091 27.9091 27.4091C29.7879 27.4091 31.4129 27.7235 32.7841 28.3523C34.1553 28.9811 35.2121 29.8674 35.9545 31.0114C36.7045 32.1477 37.0833 33.4773 37.0909 35H31.0455ZM52.358 35C52.2973 34.2424 52.0133 33.6515 51.5057 33.2273C51.0057 32.803 50.2443 32.5909 49.2216 32.5909C48.5701 32.5909 48.036 32.6705 47.6193 32.8295C47.2102 32.9811 46.9072 33.1894 46.7102 33.4545C46.5133 33.7197 46.411 34.0227 46.4034 34.3636C46.3883 34.6439 46.4375 34.8977 46.5511 35.125C46.6723 35.3447 46.8617 35.5455 47.1193 35.7273C47.3769 35.9015 47.7064 36.0606 48.108 36.2045C48.5095 36.3485 48.9867 36.4773 49.5398 36.5909L51.4489 37C52.7367 37.2727 53.839 37.6326 54.7557 38.0795C55.6723 38.5265 56.4223 39.053 57.0057 39.6591C57.589 40.2576 58.017 40.9318 58.2898 41.6818C58.5701 42.4318 58.714 43.25 58.7216 44.1364C58.714 45.6667 58.3314 46.9621 57.5739 48.0227C56.8163 49.0833 55.733 49.8902 54.3239 50.4432C52.9223 50.9962 51.2367 51.2727 49.267 51.2727C47.2443 51.2727 45.4792 50.9735 43.9716 50.375C42.4716 49.7765 41.3049 48.8561 40.4716 47.6136C39.6458 46.3636 39.2292 44.7652 39.2216 42.8182H45.2216C45.2595 43.5303 45.4375 44.1288 45.7557 44.6136C46.0739 45.0985 46.5208 45.4659 47.0966 45.7159C47.6799 45.9659 48.3731 46.0909 49.1761 46.0909C49.8504 46.0909 50.4148 46.0076 50.8693 45.8409C51.3239 45.6742 51.6686 45.4432 51.9034 45.1477C52.1383 44.8523 52.2595 44.5152 52.267 44.1364C52.2595 43.7803 52.142 43.4697 51.9148 43.2045C51.6951 42.9318 51.3314 42.6894 50.8239 42.4773C50.3163 42.2576 49.6307 42.053 48.767 41.8636L46.4489 41.3636C44.3883 40.9167 42.7633 40.1705 41.5739 39.125C40.392 38.072 39.8049 36.6364 39.8125 34.8182C39.8049 33.3409 40.1989 32.0492 40.9943 30.9432C41.7973 29.8295 42.9072 28.9621 44.3239 28.3409C45.7481 27.7197 47.3807 27.4091 49.2216 27.4091C51.1004 27.4091 52.7254 27.7235 54.0966 28.3523C55.4678 28.9811 56.5246 29.8674 57.267 31.0114C58.017 32.1477 58.3958 33.4773 58.4034 35H52.358Z" fill="black"/>
</svg>
